<?xml version="1.0" encoding="utf-8"?>
<svg version="1.1" xmlns="http://www.w3.org/2000/svg" xmlns:xlink="http://www.w3.org/1999/xlink" x="0px" y="0px"
	 viewBox="0 0 650 600" style="enable-background:new 0 0 650 600;" xml:space="preserve">
<style type="text/css">
	.st0{fill:#F4F4F4;}
</style>
<path class="st0" d="M25,0v600h600V0H25z M351.8,468c0,58.4-34.2,85-84.2,85c-45.1,0-71.3-23.4-84.6-51.5l45.9-27.8
	c8.9,15.7,16.9,29,36.3,29c18.5,0,30.2-7.2,30.2-35.4V275.5h56.4V468z M485,553c-52.4,0-86.2-25-102.7-57.7l45.8-26.6
	c12.1,19.7,27.8,34.2,55.6,34.2c23.4,0,38.3-11.7,38.3-27.8c0-19.3-15.3-26.2-41-37.4l-14.1-6c-40.7-17.3-67.7-39-67.7-85
	c0-42.3,32.2-74.5,82.6-74.5c35.8,0,61.6,12.5,80.2,45.1L518,345.6c-9.7-17.3-20.1-24.2-36.3-24.2c-16.5,0-27,10.5-27,24.2
	c0,16.9,10.5,23.8,34.7,34.2l14.1,6c47.9,20.5,75,41.5,75,88.6C578.4,525.2,538.5,553,485,553z"/>
</svg>
