<?xml version="1.0" encoding="utf-8"?>
<svg version="1.1" id="Layer_3" xmlns="http://www.w3.org/2000/svg" xmlns:xlink="http://www.w3.org/1999/xlink" x="0px" y="0px"
	 viewBox="0 0 650 600" style="enable-background:new 0 0 650 600;" xml:space="preserve">
<style type="text/css">
	.st0{fill:#F4F4F4;}
</style>
<g>
	<g>
		<circle class="st0" cx="325" cy="300" r="60.3"/>
		<path class="st0" d="M548.5,201.2c-10.4-4.1-21.3-7.9-32.8-11.3c2.7-11.7,5-23,6.6-34.1c10-67.9-2.8-115.8-36.1-135.1
			C452.9,1.5,405,14.4,351.2,57c-8.7,6.9-17.5,14.5-26.2,22.7c-8.7-8.2-17.5-15.8-26.2-22.7C245,14.4,197.1,1.5,163.8,20.7
			c-33.3,19.2-46.1,67.2-36.1,135.1c1.6,11,3.8,22.4,6.6,34.1c-11.5,3.5-22.4,7.2-32.8,11.3C37.7,226.4,2.5,261.5,2.5,300
			c0,38.5,35.1,73.6,98.9,98.8c10.4,4.1,21.3,7.9,32.8,11.3c-2.7,11.7-5,23-6.6,34.1c-10,67.9,2.8,115.8,36.1,135.1
			c10.1,5.8,21.5,8.7,34.1,8.7c28.8,0,63.5-15.3,101-45c8.7-6.9,17.5-14.5,26.2-22.7c8.7,8.2,17.5,15.8,26.2,22.7
			c37.5,29.7,72.1,45,101,45c12.5,0,24-2.9,34.1-8.7c33.3-19.2,46.1-67.2,36.1-135.1c-1.6-11-3.8-22.4-6.6-34.1
			c11.5-3.5,22.4-7.2,32.8-11.3c63.8-25.2,98.9-60.3,98.9-98.8C647.5,261.5,612.3,226.4,548.5,201.2z M367.6,77.7
			c44-34.9,82.5-47.4,105.5-34.1c23,13.3,31.4,52.8,23.2,108.4c-1.5,10-3.5,20.4-5.9,31c-27.7-6.8-57.7-11.8-89.1-14.9
			c-18.4-25.7-37.7-49.2-57.4-69.8C351.7,90.9,359.6,84,367.6,77.7z M207.6,367.8c7,12.1,14.2,23.9,21.7,35.4
			c-22-2.9-43.1-6.8-62.8-11.6c5.7-19.5,12.9-39.7,21.4-60.2C194,343.5,200.6,355.7,207.6,367.8z M166.4,208.4
			c19.8-4.8,40.8-8.7,62.8-11.6c-7.4,11.5-14.7,23.3-21.7,35.4c-7,12.1-13.6,24.3-19.8,36.4C179.3,248.2,172.1,228,166.4,208.4z
			 M201.8,300c8.6-18.2,18.2-36.4,28.7-54.6c10.5-18.2,21.5-35.6,32.9-52.1c20-1.6,40.7-2.5,61.6-2.5c21,0,41.6,0.8,61.6,2.5
			c11.4,16.5,22.5,34,32.9,52.1c10.5,18.2,20.1,36.4,28.7,54.6c-8.6,18.2-18.2,36.4-28.7,54.6s-21.5,35.6-32.9,52.1
			c-20,1.6-40.7,2.5-61.6,2.5c-21,0-41.6-0.8-61.6-2.5c-11.4-16.5-22.5-34-32.9-52.1C220,336.4,210.4,318.2,201.8,300z M442.4,367.8
			c7-12.1,13.6-24.3,19.8-36.4c8.5,20.5,15.7,40.7,21.4,60.2c-19.8,4.8-40.8,8.7-62.8,11.6C428.2,391.7,435.4,379.9,442.4,367.8z
			 M442.4,232.2c-7-12.1-14.2-23.9-21.7-35.4c22,2.9,43.1,6.8,62.8,11.6c-5.7,19.5-12.9,39.7-21.4,60.2
			C456,256.5,449.4,244.3,442.4,232.2z M366.5,165.5c-13.6-0.7-27.5-1.1-41.5-1.1c-14,0-27.8,0.4-41.5,1.1
			c13.5-17.6,27.4-33.9,41.5-48.6C339.1,131.6,353,147.9,366.5,165.5z M177,43.6c6-3.5,13.1-5.2,21.1-5.2
			c22.4,0,51.9,13.5,84.4,39.3c8,6.3,15.9,13.2,23.9,20.7c-19.7,20.6-39,44.1-57.4,69.8c-31.5,3.1-61.5,8.1-89.1,14.9
			c-2.5-10.6-4.5-21-5.9-31C145.5,96.3,154,56.8,177,43.6z M141,384.6c-10.4-3.2-20.4-6.6-29.8-10.3c-52.3-20.7-82.3-47.8-82.3-74.3
			c0-26.5,30-53.6,82.3-74.3c9.4-3.7,19.4-7.2,29.8-10.3c8,27.3,18.6,55.8,31.7,84.6C159.6,328.8,149,357.3,141,384.6z M282.4,522.3
			c-44,34.9-82.5,47.3-105.5,34.1c-23-13.3-31.4-52.8-23.2-108.4c1.5-10,3.5-20.4,5.9-31c27.7,6.8,57.7,11.8,89.1,14.9
			c18.4,25.7,37.7,49.2,57.4,69.8C298.3,509.1,290.4,516,282.4,522.3z M283.5,434.5c13.6,0.7,27.5,1.1,41.5,1.1
			c14,0,27.8-0.4,41.5-1.1c-13.5,17.6-27.4,33.9-41.5,48.6C310.9,468.4,297,452.1,283.5,434.5z M473,556.4
			c-23,13.3-61.4,0.8-105.5-34.1c-8-6.3-15.9-13.2-23.9-20.7c19.7-20.6,39-44.1,57.4-69.8c31.5-3.1,61.5-8.1,89.1-14.9
			c2.5,10.6,4.5,21,5.9,31C504.5,503.7,496,543.2,473,556.4z M538.8,374.3c-9.4,3.7-19.4,7.2-29.8,10.3c-8-27.3-18.6-55.8-31.7-84.6
			c13.1-28.8,23.7-57.3,31.7-84.6c10.4,3.2,20.4,6.6,29.8,10.3c52.3,20.7,82.3,47.8,82.3,74.3C621.1,326.5,591.1,353.6,538.8,374.3z
			"/>
	</g>
</g>
</svg>
